# AST/ASF file generated using VICON BodyLanguage
# -----------------------------------------------
:version 1.10
:name VICON
:units
  mass 1.0
  length 0.45
  angle deg
:documentation
   .ast/.asf automatically generated from VICON data using
   VICON BodyBuilder and BodyLanguage model FoxedUp or BRILLIANT.MOD
:root
   order TX TY TZ RX RY RZ
   axis XYZ
   position 0 0 0  
   orientation 0 0 0 
:bonedata
  begin
     id 1 
     name lhipjoint
     direction 0.716248 -0.617586 0.324924 
     length 2.63557 
     axis 0 0 0  XYZ
  end
  begin
     id 2 
     name lfemur
     direction 0.34202 -0.939693 0  
     length 7.01235  
     axis 0 0 20  XYZ
    dof rx ry rz
    limits (-160.0 20.0)
           (-70.0 70.0)
           (-60.0 70.0)
  end
  begin
     id 3 
     name ltibia
     direction 0.34202 -0.939693 0   
     length 8.14348   
     axis 0 0 20   XYZ
    dof rx
    limits (-10.0 170.0)
  end
  begin
     id 4 
     name lfoot
     direction 0.0982064 -0.26982 0.95789   
     length 1.99077   
     axis -90 7.62852e-016 20   XYZ
    dof rx rz
    limits (-45.0 90.0)
           (-70.0 20.0)
  end
  begin
     id 5 
     name ltoes
     direction 1.53511e-011 -4.21891e-011 1   
     length 0.99735   
     axis -90 7.62852e-016 20   XYZ
    dof rx
    limits (-90.0 20.0)
  end
  begin
     id 6 
     name rhipjoint
     direction -0.687828 -0.642391 0.337975   
     length 2.5338  
     axis 0 0 0  XYZ 
  end
  begin
     id 7 
     name rfemur
     direction -0.34202 -0.939693 0   
     length 6.90199   
     axis 0 0 -20   XYZ
    dof rx ry rz
    limits (-160.0 20.0)
           (-70.0 70.0)
           (-70.0 60.0)
  end
  begin
     id 8 
     name rtibia
     direction -0.34202 -0.939693 0   
     length 8.07725   
     axis 0 0 -20   XYZ
    dof rx
    limits (-10.0 170.0)
 end
 begin
     id 9 
     name rfoot
     direction -0.0912384 -0.250675 0.963762   
     length 2.11621  
     axis -90 -7.62852e-016 -20   XYZ
    dof rx rz
    limits (-45.0 90.0)
           (-20.0 70.0)
  end
  begin
     id 10 
     name rtoes
     direction -1.5359e-011 -4.21894e-011 1   
     length 1.06031   
     axis -90 -7.62852e-016 -20   XYZ
    dof rx
    limits (-90.0 20.0)
  end
  begin
     id 11 
     name lowerback
     direction -0.0403572 0.987953 -0.149396   
     length 2.05637   
     axis 0 0 0   XYZ
    dof rx ry rz
    limits (-20.0 45.0)
           (-30.0 30.0)
           (-30.0 30.0)
  end
  begin
     id 12 
     name upperback
     direction -0.00512151 0.997598 0.0690792   
     length 2.01086   
     axis 0 0 0   XYZ
    dof rx ry rz
    limits (-20.0 45.0)
           (-30.0 30.0)
           (-30.0 30.0)
  end
  begin
     id 13 
     name thorax
     direction 0.0136133 0.989392 0.14463   
     length 2.09035   
     axis 0 0 0   XYZ
    dof rx ry rz
    limits (-20.0 45.0)
           (-30.0 30.0)
           (-30.0 30.0)
  end
  begin
     id 14 
     name lowerneck
     direction 0.0250714 0.992811 0.11704   
     length 1.70806   
     axis 0 0 0   XYZ
    dof rx ry rz
    limits (-20.0 45.0)
           (-30.0 30.0)
           (-30.0 30.0)
  end
  begin
     id 15 
     name upperneck
     direction -0.0519205 0.998394 -0.0226787   
     length 1.6689   
     axis 0 0 0   XYZ
    dof rx ry rz
    limits (-20.0 45.0)
           (-30.0 30.0)
           (-30.0 30.0)
  end
  begin
     id 16
     name head
     direction -0.0201693 0.999547 -0.0223192  
     length 1.83412  
     axis 0 0 0   XYZ
    dof rx ry rz
    limits (-20.0 45.0)
           (-30.0 30.0)
           (-30.0 30.0)
  end
  begin
     id 17 
     name lclavicle
     direction 0.89585 0.444077 -0.0157448  
     length 3.39587  
     axis 0 0 0   XYZ
    dof ry rz
    limits (-20.0 10.0)
           (0.0 20.0)
  end
  begin
     id 18 
     name lhumerus
     direction 1 -4.48956e-011 1.99132e-028   
     length 5.79199   
     axis 180 -30 -90   XYZ
    dof rx ry rz
    limits (-60.0 90.0)
           (-90.0 90.0)
           (-90.0 90.0)
  end
  begin
     id 19
     name lradius
     direction 1 -4.48974e-011 8.72912e-028   
     length 3.49908   
     axis 180 -30 -90   XYZ
    dof rx
    limits (-10.0 170.0)
  end
  begin
     id 20
     name lwrist
     direction 1 -4.48994e-011 4.76442e-027   
     length 1.74954   
     axis -3.27502e-015 90 90   XYZ
    dof ry
    limits (-180.0 0.0)
 end
  begin
     id 21 
     name lhand
     direction 1 -4.48945e-011 9.531e-027   
     length 0.593861   
     axis -6.08098e-015 90 90   XYZ
    dof rx rz
    limits (-90.0 90.0)
           (-45.0 45.0)
  end
  begin
     id 22 
     name lfingers
     direction 1 -4.48945e-011 1.9062e-026   
     length 0.478786   
     axis -1.21619e-014 90 90   XYZ
    dof rx
    limits (0.0 90.0)
  end
  begin
     id 23
     name lthumb
     direction 0.707107 -6.34904e-011 0.707107   
     length 0.687444   
     axis -90 45 -9.86923e-015   XYZ
    dof rx rz
    limits (-45.0 45.0)
           (-45.0 45.0)
  end
  begin
     id 24 
     name rclavicle
     direction -0.940466 0.338394 0.0318182   
     length 3.51226  
     axis 0 0 0   XYZ 
    dof ry rz
    limits (-10.0 20.0)
           (-20.0 0.0)
  end
  begin
     id 25 
     name rhumerus
     direction -1 -4.48976e-011 2.0905e-027  
     length 5.73799   
     axis 180 30 90   XYZ
    dof rx ry rz
    limits (-90.0 60.0)
           (-90.0 90.0)
           (-90.0 90.0)
  end
  begin
     id 26 
     name rradius
     direction -1 -4.48968e-011 -9.39692e-029   
     length 3.57916   
     axis 180 30 90   XYZ
    dof rx
    limits (-10.0 170.0)
  end
  begin
     id 27 
     name rwrist
     direction -1 -4.48959e-011 4.7652e-027   
     length 1.78958   
     axis -3.27502e-015 -90 -90   XYZ
    dof ry
    limits (-180.0 0.0)
  end
  begin
     id 28
     name rhand
     direction -1 -4.49042e-011 9.5267e-027   
     length 0.615577   
     axis -6.08098e-015 -90 -90   XYZ
    dof rx rz
    limits (-90.0 90.0)
           (-45.0 45.0)
  end
  begin
     id 29
     name rfingers
     direction -1 -4.48935e-011 1.90629e-026   
     length 0.496294   
     axis -1.21619e-014 -90 -90   XYZ
    dof rx
    limits (0.0 90.0)
  end
  begin
     id 30
     name rthumb
     direction -0.707107 -6.34977e-011 0.707107   
     length 0.712582   
     axis -90 -45 9.86923e-015   XYZ
    dof rx rz
    limits (-45.0 45.0)
           (-45.0 45.0)
  end
:hierarchy
  begin
    root lhipjoint rhipjoint lowerback
    lhipjoint lfemur
    lfemur ltibia
    ltibia lfoot
    lfoot ltoes
    rhipjoint rfemur
    rfemur rtibia
    rtibia rfoot
    rfoot rtoes
    lowerback upperback
    upperback thorax
    thorax lowerneck lclavicle rclavicle
    lowerneck upperneck
    upperneck head
    lclavicle lhumerus
    lhumerus lradius
    lradius lwrist
    lwrist lhand lthumb
    lhand lfingers
    rclavicle rhumerus
    rhumerus rradius
    rradius rwrist
    rwrist rhand rthumb
    rhand rfingers
  end

#!OML:ASF H:\Terrain\Patient Classification 1\PaulMetrics\March17Take5\PaulMetrics.ASF
:FULLY-SPECIFIED
:DEGREES
3783
root 6.04593 16.5346 -15.3073 -537.241 -20.9209 178.227
lowerback 3.97216 2.89298 -6.33587
upperback -3.37979 3.19131 -2.23549
thorax -5.99176 1.72815 0.917297
lowerneck -5.70587 9.8819 4.89478
upperneck 12.0137 13.2517 -4.82085
head 5.20125 6.33441 -1.39724
rclavicle -3.97569e-014 -7.15625e-015
rhumerus -46.5238 24.1824 -93.8682
rradius 95.699
rwrist -20.3542
rhand -24.8387 -35.8104
rfingers 7.12502
rthumb 1.66737 294.216
lclavicle -3.97569e-014 -7.15625e-015
lhumerus -50.1142 -4.28657 72.4678
lradius 23.9912
lwrist 3.07791
lhand -9.07863 -9.33689
lfingers 7.12502
lthumb 16.8708 19.9503
rfemur -25.1749 -1.40575 17.9786
rtibia 82.98
rfoot -1.78696 -4.71499
rtoes -17.6342
lfemur -29.9235 4.59196 -30.3662
ltibia 45.4763
lfoot -15.6094 6.02802
ltoes 9.07951
3784
root 5.95853 16.5389 -15.4574 -537.307 -21.9868 177.891
lowerback 4.34662 2.58668 -6.16698
upperback -3.22426 2.75618 -2.452
thorax -5.99166 1.49762 0.631108
lowerneck -6.6292 9.88726 4.67618
upperneck 12.8944 13.2255 -4.37552
head 5.58386 6.3045 -1.16406
rclavicle -2.82274e-014 3.97569e-014
rhumerus -46.4626 24.382 -94.2271
rradius 94.2868
rwrist -21.4075
rhand -24.8848 -36.6272
rfingers 7.12502
rthumb 1.62282 293.399
lclavicle -2.82274e-014 3.97569e-014
lhumerus -49.4101 -4.72718 72.9168
lradius 24.8134
lwrist 4.70528
lhand -6.54838 -14.8512
lfingers 7.12502
lthumb 19.3051 14.2106
rfemur -26.2344 -2.05895 17.6495
rtibia 83.5486
rfoot -2.6203 -4.56357
rtoes -16.0042
lfemur -28.6628 3.32441 -30.7195
ltibia 44.9046
lfoot -16.0024 6.1825
ltoes 9.23377
3785
root 5.87202 16.5342 -15.6095 -537.823 -23.6164 177.828
lowerback 4.94096 2.14551 -5.88924
upperback -2.9402 2.16661 -2.45688
thorax -5.98161 1.19672 0.518712
lowerneck -6.37366 9.66019 4.55032
upperneck 12.8137 12.9583 -4.59297
head 5.50951 6.15667 -1.24926
rclavicle -5.76476e-015 -5.00937e-014
rhumerus -46.4922 24.7467 -94.3998
rradius 92.9637
rwrist -22.4059
rhand -24.6059 -37.2907
rfingers 7.12502
rthumb 1.89214 292.738
lclavicle -5.76476e-015 -5.00937e-014
lhumerus -49.0381 -5.51297 73.9766
lradius 26.6485
lwrist 7.19841
lhand -5.57812 -15.4642
lfingers 7.12502
lthumb 20.2379 13.5015
rfemur -26.6905 -3.23721 17.6367
rtibia 83.8402
rfoot -3.60183 -4.37901
rtoes -13.3828
lfemur -27.0308 1.82231 -30.8197
ltibia 44.4401
lfoot -16.22 6.33427
ltoes 6.04794
3786
root 5.79423 16.5491 -15.766 -537.707 -24.6203 177.802
lowerback 4.85404 1.85646 -5.97782
upperback -2.86573 1.79763 -2.34609
thorax -5.83878 1.01975 0.727553
lowerneck -6.00209 9.5942 4.74445
upperneck 12.5152 12.9089 -5.07776
head 5.39701 6.12157 -1.45369
rclavicle -3.13086e-014 4.29375e-014
rhumerus -46.7506 25.1485 -94.4792
rradius 91.885
rwrist -23.7512
rhand -24.0695 -38.4428
rfingers 7.12502
rthumb 2.4102 291.591
lclavicle -3.13086e-014 4.29375e-014
lhumerus -48.8563 -6.0866 74.879
lradius 28.5399
lwrist 9.72511
lhand -6.97164 -17.3306
lfingers 7.12502
lthumb 18.8981 11.7713
rfemur -28.0985 -3.82854 17.7643
rtibia 83.986
rfoot -4.04266 -4.22027
rtoes -12.7477
lfemur -26.2659 0.767591 -30.8708
ltibia 44.1765
lfoot -16.4406 6.49799
ltoes 3.4571
3787
root 5.72817 16.5685 -15.9153 -538.024 -25.2047 177.971
lowerback 5.3182 1.69559 -6.01575
upperback -2.77112 1.56918 -2.16878
thorax -5.9969 0.919492 0.945862
lowerneck -6.00712 9.94285 5.06534
upperneck 12.1833 13.3801 -5.33094
head 5.35799 6.3617 -1.54412
rclavicle -3.34952e-014 5.00937e-014
rhumerus -47.1205 25.4761 -94.6042
rradius 90.7217
rwrist -24.6769
rhand -23.5844 -39.3725
rfingers 7.12502
rthumb 2.87877 290.667
lclavicle -3.34952e-014 5.00937e-014
lhumerus -48.5906 -6.48141 75.502
lradius 30.1282
lwrist 12.0109
lhand -8.39348 -19.529
lfingers 7.12502
lthumb 17.5302 9.70068
rfemur -29.1367 -3.80604 18.1213
rtibia 83.8495
rfoot -4.29549 -4.22861
rtoes -12.9343
lfemur -25.1475 0.139001 -30.6873
ltibia 43.8609
lfoot -16.8143 6.51554
ltoes 3.80096
3788
root 5.66611 16.5733 -16.0627 -536.946 -25.1661 178.183
lowerback 4.29062 1.66859 -6.12758
upperback -3.09181 1.59348 -2.0272
thorax -5.75691 0.936856 1.17477
lowerneck -5.73363 9.92153 5.06308
upperneck 11.7626 13.3497 -5.33459
head 5.17989 6.36472 -1.57155
rclavicle -1.49089e-014 -1.11319e-014
rhumerus -47.3088 26.0147 -94.6706
rradius 89.2492
rwrist -24.9261
rhand -23.3286 -39.8656
rfingers 7.12502
rthumb 3.12578 290.178
lclavicle -1.49089e-014 -1.11319e-014
lhumerus -48.3057 -6.98383 76.1278
lradius 31.8182
lwrist 14.5994
lhand -9.34472 -18.7126
lfingers 7.12502
lthumb 16.6146 10.5963
rfemur -32.0723 -3.01903 18.6366
rtibia 83.8186
rfoot -4.37075 -4.24023
rtoes -12.5954
lfemur -25.6627 -0.248282 -30.507
ltibia 43.6367
lfoot -17.2402 6.72607
ltoes 3.79918
3789
root 5.56872 16.5729 -16.2005 -537.648 -27.9895 177.73
lowerback 5.53221 0.852739 -5.90173
upperback -2.75666 0.441499 -2.14777
thorax -6.02987 0.362203 1.0237
lowerneck -5.28349 9.9103 5.1816
upperneck 11.2973 13.348 -5.55819
head 4.98408 6.3757 -1.69032
rclavicle 3.94091e-014 1.90833e-014
rhumerus -47.5047 26.4091 -94.6887
rradius 87.7236
rwrist -24.8555
rhand -22.5035 -40.2025
rfingers 7.12502
rthumb 3.92253 289.854
lclavicle 3.94091e-014 1.90833e-014
lhumerus -48.1795 -7.6741 76.8908
lradius 33.9418
lwrist 17.7656
lhand -10.327 -19.7186
lfingers 7.12502
lthumb 15.6687 9.66694
rfemur -31.7927 -5.2479 18.0978
rtibia 83.3442
rfoot -5.08039 -3.50517
rtoes -11.7968
lfemur -23.6304 -2.7538 -31.0226
ltibia 43.2684
lfoot -17.2436 6.81616
ltoes 2.24208
3790
root 5.5013 16.5855 -16.3672 -536.9 -27.7016 177.426
lowerback 4.81685 0.99596 -6.67194
upperback -2.88003 0.629227 -1.99383
thorax -5.77974 0.481574 1.60108
lowerneck -5.16546 9.94115 4.83226
upperneck 11.246 13.4199 -5.55897
head 4.92888 6.39746 -1.64173
rclavicle 1.0635e-014 -6.91771e-014
rhumerus -47.9982 26.7039 -94.7306
rradius 86.3344
rwrist -24.3493
rhand -21.8699 -40.3138
rfingers 7.12502
rthumb 4.53437 289.755
lclavicle 1.0635e-014 -6.91771e-014
lhumerus -47.9461 -8.0954 77.7025
lradius 35.9448
lwrist 20.4849
lhand -12.4497 -19.616
lfingers 7.12502
lthumb 13.6237 9.91814
rfemur -33.8095 -4.38436 17.9806
rtibia 82.8738
rfoot -5.22411 -2.96003
rtoes -13.6083
lfemur -23.4119 -2.76526 -31.2984
ltibia 43.0093
lfoot -17.4592 7.05856
ltoes -0.391909
3791
root 5.42028 16.5951 -16.523 -536.78 -28.3528 177.605
lowerback 4.61071 0.808743 -6.66845
upperback -2.85791 0.421283 -1.76912
thorax -5.62263 0.383536 1.85666
lowerneck -5.37391 9.92298 4.50495
upperneck 11.5366 13.4069 -5.37431
head 5.01774 6.37559 -1.52235
rclavicle 3.6154e-014 -1.90833e-014
rhumerus -48.6081 26.9137 -94.8937
rradius 84.9398
rwrist -23.385
rhand -21.9963 -40.2536
rfingers 7.12502
rthumb 4.41237 289.812
lclavicle 3.6154e-014 -1.90833e-014
lhumerus -47.6191 -8.50342 78.4644
lradius 37.7333
lwrist 22.9297
lhand -13.6449 -19.818
lfingers 7.12502
lthumb 12.4715 9.78984
rfemur -35.0434 -4.42889 18.3088
rtibia 82.0044
rfoot -5.32159 -2.68123
rtoes -15.9907
lfemur -22.7382 -3.37568 -31.1526
ltibia 42.7375
lfoot -17.8408 7.07548
ltoes -1.35006
3792
root 5.33786 16.6069 -16.6719 -536.792 -29.2087 177.968
lowerback 4.58894 0.643638 -6.23943
upperback -2.8786 0.244605 -1.67868
thorax -5.61114 0.285463 1.72869
lowerneck -5.41306 9.74638 4.60782
upperneck 11.6273 13.1642 -5.40205
head 5.04866 6.2572 -1.56045
rclavicle -3.27995e-015 -4.77083e-015
rhumerus -49.078 26.5885 -95.0246
rradius 83.4387
rwrist -22.1954
rhand -21.9267 -40.4724
rfingers 7.12502
rthumb 4.47951 289.595
lclavicle -3.27995e-015 -4.77083e-015
lhumerus -47.249 -9.41591 79.1899
lradius 39.479
lwrist 25.7775
lhand -14.1135 -21.2859
lfingers 7.12502
lthumb 12.0196 8.34893
rfemur -36.1866 -4.51899 18.79
rtibia 80.9572
rfoot -5.10157 -3.04633
rtoes -16.3965
lfemur -22.1035 -4.0752 -30.835
ltibia 42.5623
lfoot -18.3233 6.97773
ltoes -0.580918
3793
root 5.25963 16.6229 -16.8171 -536.791 -29.7671 178.272
lowerback 4.71127 0.733155 -5.72491
upperback -3.00089 0.380734 -1.75726
thorax -5.81245 0.337941 1.34437
lowerneck -4.87945 9.42711 4.8591
upperneck 11.1669 12.7333 -5.63246
head 4.82646 6.06588 -1.7371
rclavicle 8.3738e-015 1.82882e-014
rhumerus -49.5659 25.8998 -95.0953
rradius 81.8839
rwrist -21.0649
rhand -21.8595 -40.6919
rfingers 7.12502
rthumb 4.54446 289.377
lclavicle 8.3738e-015 1.82882e-014
lhumerus -46.6909 -10.8185 79.8629
lradius 41.4254
lwrist 28.0367
lhand -14.3541 -21.908
lfingers 7.12502
lthumb 11.7877 7.74023
rfemur -37.3747 -4.28345 19.1187
rtibia 79.8142
rfoot -4.78673 -3.1882
rtoes -16.2517
lfemur -21.519 -4.53788 -30.5538
ltibia 42.3674
lfoot -18.4012 6.9345
ltoes -1.97099
3794
root 5.18528 16.6425 -16.9634 -536.747 -30.2488 178.351
lowerback 4.87371 0.736537 -5.62279
upperback -3.03275 0.381306 -1.74682
thorax -5.93789 0.338516 1.29623
lowerneck -4.64798 9.30112 4.82818
upperneck 10.9492 12.5647 -5.63435
head 4.70991 5.99226 -1.76203
rclavicle 8.44835e-016 4.77083e-015
rhumerus -50.0786 25.8365 -95.2348
rradius 80.3848
rwrist -20.3728
rhand -22.2448 -40.262
rfingers 7.12502
rthumb 4.1724 289.799
lclavicle 8.44835e-016 4.77083e-015
lhumerus -46.2913 -11.8137 80.524
lradius 43.7794
lwrist 29.5225
lhand -15.2538 -21.7775
lfingers 7.12502
lthumb 10.9199 7.91852
rfemur -38.4348 -3.89765 19.1923
rtibia 78.5591
rfoot -4.59323 -2.93952
rtoes -15.8686
lfemur -20.8288 -4.7934 -30.4728
ltibia 42.1294
lfoot -19.3779 6.60809
ltoes 1.44685
3795
root 5.11101 16.6584 -17.115 -536.545 -30.8023 178.276
lowerback 4.8376 0.575731 -5.90977
upperback -2.96015 0.166475 -1.5806
thorax -5.82983 0.246455 1.65216
lowerneck -5.10607 9.38292 4.59442
upperneck 11.2952 12.6831 -5.5006
head 4.87544 6.03169 -1.64825
rclavicle 9.66093e-014 -2.70347e-014
rhumerus -50.4471 26.2799 -95.3429
rradius 78.9387
rwrist -19.9026
rhand -22.7222 -39.8845
rfingers 7.12502
rthumb 3.71141 290.168
lclavicle 9.66093e-014 -2.70347e-014
lhumerus -46.2079 -12.0754 81.0562
lradius 46.5006
lwrist 30.5877
lhand -16.0834 -21.4697
lfingers 7.12502
lthumb 10.1197 8.26692
rfemur -39.4025 -3.60466 19.1421
rtibia 77.1175
rfoot -4.49193 -2.78038
rtoes -16.4596
lfemur -20.1254 -5.02079 -30.498
ltibia 41.8298
lfoot -20.0924 6.21388
ltoes 3.58607
